<mxfile host="app.diagrams.net" modified="2021-05-07T07:00:41.702Z" agent="5.0 (Windows NT 10.0; Win64; x64) AppleWebKit/537.36 (KHTML, like Gecko) Chrome/90.0.4430.93 Safari/537.36" etag="XbyrG97qXQGqDJonUFKK" version="14.6.9" type="github">
  <diagram id="i8MIVQGhc1C5RcvYPa76" name="Page-1">
    <mxGraphModel dx="734" dy="674" grid="1" gridSize="10" guides="1" tooltips="1" connect="1" arrows="1" fold="1" page="1" pageScale="1" pageWidth="1169" pageHeight="827" math="0" shadow="0">
      <root>
        <mxCell id="0" />
        <mxCell id="1" parent="0" />
        <mxCell id="fq2tyvx-F6o5K7CqC5zT-10" style="edgeStyle=orthogonalEdgeStyle;rounded=0;orthogonalLoop=1;jettySize=auto;html=1;dashed=1;startArrow=none;startFill=0;endArrow=none;endFill=0;exitX=1;exitY=0.5;exitDx=0;exitDy=0;" edge="1" parent="1" source="fq2tyvx-F6o5K7CqC5zT-11">
          <mxGeometry relative="1" as="geometry">
            <mxPoint x="470" y="460" as="sourcePoint" />
            <Array as="points">
              <mxPoint x="690" y="490" />
            </Array>
            <mxPoint x="690" y="570" as="targetPoint" />
          </mxGeometry>
        </mxCell>
        <mxCell id="fq2tyvx-F6o5K7CqC5zT-11" value="QGroundControl" style="rounded=0;whiteSpace=wrap;html=1;fillColor=#fff2cc;strokeColor=#d6b656;fontStyle=1;dashed=1;" vertex="1" parent="1">
          <mxGeometry x="390" y="460" width="120" height="60" as="geometry" />
        </mxCell>
        <mxCell id="fq2tyvx-F6o5K7CqC5zT-17" style="edgeStyle=orthogonalEdgeStyle;rounded=0;orthogonalLoop=1;jettySize=auto;html=1;exitX=0.5;exitY=0;exitDx=0;exitDy=0;entryX=0.5;entryY=1;entryDx=0;entryDy=0;dashed=1;startArrow=none;startFill=0;endArrow=none;endFill=0;" edge="1" parent="1" source="fq2tyvx-F6o5K7CqC5zT-15" target="fq2tyvx-F6o5K7CqC5zT-11">
          <mxGeometry relative="1" as="geometry">
            <mxPoint x="770.0000000000002" y="580" as="sourcePoint" />
            <mxPoint x="770.0000000000002" y="530" as="targetPoint" />
          </mxGeometry>
        </mxCell>
        <mxCell id="fq2tyvx-F6o5K7CqC5zT-20" value="" style="shape=image;verticalLabelPosition=bottom;labelBackgroundColor=#ffffff;verticalAlign=top;aspect=fixed;imageAspect=0;image=https://mavlink.io/assets/site/logo_mavlink_small.png;" vertex="1" parent="1">
          <mxGeometry x="570" y="470" width="74" height="17.76" as="geometry" />
        </mxCell>
        <mxCell id="fq2tyvx-F6o5K7CqC5zT-28" value="Upload Mission&lt;br&gt;Control Payload Trigger&lt;br&gt;Monitering" style="edgeStyle=orthogonalEdgeStyle;rounded=0;orthogonalLoop=1;jettySize=auto;html=1;exitX=1;exitY=0.5;exitDx=0;exitDy=0;entryX=0;entryY=0.5;entryDx=0;entryDy=0;endArrow=classic;endFill=1;strokeColor=#FF3333;fontColor=#FF0000;startArrow=classic;startFill=1;" edge="1" parent="1" target="fq2tyvx-F6o5K7CqC5zT-1">
          <mxGeometry x="0.0023" y="-40" relative="1" as="geometry">
            <mxPoint x="510" y="599.66" as="sourcePoint" />
            <mxPoint x="570" y="599.66" as="targetPoint" />
            <mxPoint as="offset" />
          </mxGeometry>
        </mxCell>
        <mxCell id="fq2tyvx-F6o5K7CqC5zT-1" value="Flight Controller" style="rounded=0;whiteSpace=wrap;html=1;fillColor=#e1d5e7;strokeColor=#9673a6;fontStyle=1" vertex="1" parent="1">
          <mxGeometry x="630" y="570" width="120" height="60" as="geometry" />
        </mxCell>
        <mxCell id="fq2tyvx-F6o5K7CqC5zT-15" value="Android" style="rounded=0;whiteSpace=wrap;html=1;fillColor=#d5e8d4;strokeColor=#82b366;fontStyle=1" vertex="1" parent="1">
          <mxGeometry x="390" y="570" width="120" height="60" as="geometry" />
        </mxCell>
      </root>
    </mxGraphModel>
  </diagram>
</mxfile>
